<svg width="98" height="89" viewBox="0 0 98 89" fill="none" xmlns="http://www.w3.org/2000/svg">
<path d="M18.5036 89H6.06836L48.2595 0H56.6977L98.0006 89H86.2315L52.4786 14.7991L18.5036 89Z" fill="black"/>
<path d="M12.0631 85.3006C10.1386 81.5323 7.35547 72.3925 11.619 65.9796C16.9484 57.9634 16.9486 60.2244 22.056 53.8525" stroke="black" stroke-width="2"/>
<path d="M5.40173 57.5525C7.00055 59.6901 10.065 64.6094 11.3973 66.8019C17.3929 59.6079 15.3942 59.1968 15.8383 56.5247C16.2825 53.8527 11.3973 46.6587 10.2869 44.8088C9.39854 43.3289 7.40017 38.711 6.51202 36.5871C3.18114 39.2591 3.4032 54.8804 5.40173 57.5525Z" fill="#3A7723"/>
<path d="M40.7089 33.915C40.7089 36.176 32.9368 40.0813 28.7177 42.1367C27.3069 42.8241 25.0592 44.082 24.0545 46.0421C22.6557 48.7711 22.9309 52.6811 22.5001 54.6749C25.1648 54.3323 30.7607 53.4416 31.8266 52.6194C33.1589 51.5917 38.9324 47.8919 40.7089 44.8088C42.1301 42.3423 41.3011 36.5186 40.7089 33.915Z" fill="#3A7723"/>
<path d="M28.7172 42.1358C21.9667 44.9312 21.9074 51.7963 22.7216 54.8795C26.2006 54.4684 34.1355 52.4952 38.0437 47.891C42.929 42.1358 40.9305 42.3414 41.3746 39.8748C41.7299 37.9016 41.0785 35.3529 40.7084 34.3252C40.7084 34.7363 37.1554 38.6416 28.7172 42.1358Z" stroke="#679B54" stroke-width="2"/>
<path d="M5.40111 57.346C5.84523 58.5792 11.1746 65.7732 11.1746 66.5954L13.8392 63.3067C15.1715 62.0735 15.6157 59.6069 15.8377 58.5792C16.0598 57.5515 15.6157 54.2628 14.5054 52.2074C13.3951 50.152 9.17597 43.3691 9.17597 42.958C9.17597 42.6291 7.25146 38.7101 6.28921 36.7917C5.40097 37.285 4.73489 40.0119 4.51288 41.3136C2.73641 49.7409 4.95699 56.1127 5.40111 57.346Z" stroke="#679B54" stroke-width="2"/>
<path d="M13.6171 72.3516C8.99833 76.298 11.1005 82.0806 12.7289 84.4786L17.8363 77.9014C19.6128 76.4626 23.1657 73.5848 25.3863 70.2961C27.6069 67.0075 22.7216 61.6634 23.1657 63.1022C23.6098 64.5409 19.3907 67.4185 13.6171 72.3516Z" fill="#2F551D"/>
<path d="M1.404 61.0469C-0.372468 73.7905 8.50987 72.7628 9.62016 73.7905C9.62016 73.3109 9.79784 71.8583 10.5085 69.8852C11.3969 67.4189 9.17617 66.391 6.73353 65.1577C4.77941 64.1711 2.36629 62.0061 1.404 61.0469Z" fill="#2F551D"/>
<path d="M19.2088 39.4641C16.7662 51.3856 21.4294 52.6188 21.6514 53.6465H22.0958L24.0544 50.3579C24.2765 49.3301 24.3164 49.1246 23.8722 46.4525C23.4635 43.9931 20.7633 39.2586 19.2088 37.2031V39.4641Z" fill="#2E391B"/>
<path d="M12.7295 72.9682C9.17656 76.5857 11.2491 82.1491 12.7295 84.4786C13.9138 82.6287 16.9485 78.4358 19.6132 76.4626C22.9441 73.9961 24.7206 71.324 25.6088 70.5018C26.497 69.6797 25.8308 66.1853 24.7206 64.5409C23.8323 63.2254 23.3142 63.1706 23.1661 63.3077C23.6103 65.5686 17.3926 69.0629 16.9485 69.6795C16.5932 70.1728 13.9878 72.0775 12.7295 72.9682Z" stroke="#537046" stroke-width="2"/>
<path d="M9.17646 73.7905C0.608319 71.8173 0.425035 64.4726 1.40441 61.0469C1.40441 61.458 7.40023 65.7744 8.95464 66.391C10.509 67.0076 10.9532 69.063 10.287 70.0908C9.75405 70.9129 9.32458 72.8998 9.17646 73.7905Z" stroke="#537046" stroke-width="2"/>
<path d="M22.0566 53.8521C26.8531 48.7546 22.1306 40.6288 19.1699 37.2031C19.1699 37.8198 19.0366 40.2452 18.5037 45.0137C17.9708 49.7823 20.6503 52.8929 22.0566 53.8521Z" stroke="#495339" stroke-width="2"/>
</svg>
